<svg width="219" height="218" viewBox="0 0 219 218" fill="none" xmlns="http://www.w3.org/2000/svg">
<path fill-rule="evenodd" clip-rule="evenodd" d="M127.726 128.508C138.644 115.24 138.215 95.9814 126.718 83.212V83.212C114.507 69.6508 93.8827 67.8556 79.5127 79.1032L42.3447 108.195C23.5728 122.888 21.7937 150.657 38.537 167.626V167.626C55.1563 184.468 82.6994 183.226 97.7343 164.955L127.726 128.508Z" stroke="#EEEEEE" stroke-width="2.8" stroke-linejoin="round"/>
<path d="M120.608 136.523L72.6953 84.4654" stroke="#EEEEEE" stroke-width="2.1" stroke-linejoin="round"/>
<path d="M125.714 81.9735L113.101 93.0724" stroke="#EEEEEE" stroke-width="2.1" stroke-linejoin="round"/>
<rect width="10.5" height="24.5" rx="5.25" transform="matrix(-0.669131 -0.743145 -0.743145 0.669131 116.546 96.79)" fill="#EEEEEE"/>
<path d="M125.713 81.9728C125.713 81.9728 159.775 45.3172 176.466 75.7759C189.527 99.6115 200.249 32.0342 218.158 23.867" stroke="#EEEEEE" stroke-width="2.1"/>
</svg>
