<svg width="45" height="47" viewBox="0 0 45 47" fill="none" xmlns="http://www.w3.org/2000/svg">
<rect x="0.5" width="44" height="46.88" rx="5.28" fill="#D9E5FB"/>
<path d="M13.086 28.8541C12.7109 29.2291 12.5001 29.7377 12.5 30.2681V32.4401C12.5 32.7053 12.6054 32.9597 12.7929 33.1472C12.9804 33.3347 13.2348 33.4401 13.5 33.4401H16.5C16.7652 33.4401 17.0196 33.3347 17.2071 33.1472C17.3946 32.9597 17.5 32.7053 17.5 32.4401V31.4401C17.5 31.1749 17.6054 30.9205 17.7929 30.733C17.9804 30.5455 18.2348 30.4401 18.5 30.4401H19.5C19.7652 30.4401 20.0196 30.3347 20.2071 30.1472C20.3946 29.9597 20.5 29.7053 20.5 29.4401V28.4401C20.5 28.1749 20.6054 27.9205 20.7929 27.733C20.9804 27.5455 21.2348 27.4401 21.5 27.4401H21.672C22.2024 27.44 22.711 27.2292 23.086 26.8541L23.9 26.0401C25.2898 26.5242 26.8028 26.5224 28.1915 26.0349C29.5801 25.5473 30.7622 24.6029 31.5444 23.3562C32.3265 22.1095 32.6624 20.6343 32.4971 19.1718C32.3318 17.7094 31.6751 16.3464 30.6344 15.3057C29.5937 14.265 28.2307 13.6083 26.7683 13.443C25.3058 13.2777 23.8306 13.6136 22.5839 14.3957C21.3372 15.1779 20.3928 16.36 19.9052 17.7486C19.4177 19.1373 19.4159 20.6503 19.9 22.0401L13.086 28.8541Z" fill="#417BEB"/>
<path d="M27 19.4399C27.2761 19.4399 27.5 19.2161 27.5 18.9399C27.5 18.6638 27.2761 18.4399 27 18.4399C26.7239 18.4399 26.5 18.6638 26.5 18.9399C26.5 19.2161 26.7239 19.4399 27 19.4399Z" fill="#D9E5FB" stroke="#D9E5FB" stroke-width="2" stroke-linecap="round" stroke-linejoin="round"/>
</svg>
