<svg width="45" height="48" viewBox="0 0 45 48" fill="none" xmlns="http://www.w3.org/2000/svg">
<rect x="0.5" y="0.879883" width="44" height="46.88" rx="5.28" fill="#D9E5FB"/>
<path d="M21.5 14.3198V16.3198" stroke="#417BEB" stroke-width="2" stroke-linecap="round" stroke-linejoin="round"/>
<path d="M15.5 14.3198V16.3198" stroke="#417BEB" stroke-width="2" stroke-linecap="round" stroke-linejoin="round"/>
<path d="M15.5 15.3198H14.5C13.9696 15.3198 13.4609 15.5305 13.0858 15.9056C12.7107 16.2807 12.5 16.7894 12.5 17.3198V21.3198C12.5 22.9111 13.1321 24.4372 14.2574 25.5625C15.3826 26.6877 16.9087 27.3198 18.5 27.3198C20.0913 27.3198 21.6174 26.6877 22.7426 25.5625C23.8679 24.4372 24.5 22.9111 24.5 21.3198V17.3198C24.5 16.7894 24.2893 16.2807 23.9142 15.9056C23.5391 15.5305 23.0304 15.3198 22.5 15.3198H21.5" stroke="#417BEB" stroke-width="2" stroke-linecap="round" stroke-linejoin="round"/>
<path d="M18.5 27.3198C18.5 28.9111 19.1321 30.4372 20.2574 31.5625C21.3826 32.6877 22.9087 33.3198 24.5 33.3198C26.0913 33.3198 27.6174 32.6877 28.7426 31.5625C29.8679 30.4372 30.5 28.9111 30.5 27.3198V24.3198" stroke="#417BEB" stroke-width="2" stroke-linecap="round" stroke-linejoin="round"/>
<path d="M30.5 24.3198C31.6046 24.3198 32.5 23.4244 32.5 22.3198C32.5 21.2153 31.6046 20.3198 30.5 20.3198C29.3954 20.3198 28.5 21.2153 28.5 22.3198C28.5 23.4244 29.3954 24.3198 30.5 24.3198Z" stroke="#417BEB" stroke-width="2" stroke-linecap="round" stroke-linejoin="round"/>
</svg>
