<svg width="45" height="48" viewBox="0 0 45 48" fill="none" xmlns="http://www.w3.org/2000/svg">
<rect x="0.5" y="0.640137" width="44" height="46.88" rx="5.28" fill="#D9E5FB"/>
<path d="M19.5 30.0801C18.9696 30.0801 18.4609 29.8694 18.0858 29.4943C17.7107 29.1192 17.5 28.6105 17.5 28.0801V16.0801C17.5 15.5496 17.7107 15.0409 18.0858 14.6659C18.4609 14.2908 18.9696 14.0801 19.5 14.0801H26.5L30.5 18.0801V28.0801C30.5 28.6105 30.2893 29.1192 29.9142 29.4943C29.5391 29.8694 29.0304 30.0801 28.5 30.0801H19.5Z" fill="#417BEB"/>
<path d="M13.5 19.6797V32.4797C13.5 32.904 13.6686 33.311 13.9686 33.6111C14.2687 33.9111 14.6757 34.0797 15.1 34.0797H24.9" stroke="#417BEB" stroke-width="2" stroke-linecap="round" stroke-linejoin="round"/>
<path d="M30.5 19.0801H27.5C26.9696 19.0801 26.4609 18.8694 26.0858 18.4943C25.7107 18.1192 25.5 17.6105 25.5 17.0801V14.0801" stroke="#D9E5FB" stroke-width="2" stroke-linecap="round" stroke-linejoin="round"/>
</svg>
