<svg width="17" height="16" viewBox="0 0 17 16" fill="none" xmlns="http://www.w3.org/2000/svg">
<rect x="0.5" width="16" height="16" rx="4" fill="white"/>
<g clip-path="url(#clip0_5_5020)">
<path d="M11.1072 6.36278C11.1072 6.09724 10.892 5.88281 10.6274 5.88281C10.3629 5.88281 10.1475 6.09724 10.1475 6.36278C10.1475 6.62735 10.3629 6.84176 10.6274 6.84176C10.892 6.84176 11.1072 6.62735 11.1072 6.36278Z" fill="url(#paint0_linear_5_5020)"/>
<path d="M11.7465 10.1091C11.7287 10.4987 11.6635 10.7103 11.6095 10.8509C11.5368 11.0373 11.4501 11.1706 11.3095 11.3103C11.1705 11.4501 11.0373 11.5366 10.8509 11.6085C10.7103 11.6633 10.4979 11.7287 10.1083 11.7473C9.68722 11.7658 9.56244 11.7698 8.49452 11.7698C7.42758 11.7698 7.3018 11.7658 6.88067 11.7473C6.49115 11.7287 6.27969 11.6633 6.1391 11.6085C5.95174 11.5366 5.81947 11.4501 5.67968 11.3103C5.5389 11.1706 5.45224 11.0373 5.38057 10.8509C5.32646 10.7103 5.26033 10.4987 5.24354 10.1091C5.22301 9.68801 5.21925 9.56125 5.21925 8.4955C5.21925 7.42757 5.22301 7.3018 5.24354 6.88066C5.26033 6.49114 5.32646 6.27969 5.38057 6.13792C5.45224 5.95174 5.5389 5.81926 5.67968 5.67947C5.81947 5.5399 5.95174 5.45321 6.1391 5.38057C6.27969 5.32548 6.49115 5.26111 6.88067 5.24256C7.3018 5.22399 7.42758 5.21925 8.49452 5.21925C9.56244 5.21925 9.68722 5.22399 10.1083 5.24256C10.4979 5.26111 10.7103 5.32548 10.8509 5.38057C11.0373 5.45321 11.1705 5.5399 11.3095 5.67947C11.4501 5.81926 11.5368 5.95174 11.6095 6.13792C11.6635 6.27969 11.7287 6.49114 11.7465 6.88066C11.766 7.3018 11.7707 7.42757 11.7707 8.4955C11.7707 9.56125 11.766 9.68801 11.7465 10.1091ZM12.4657 6.8479C12.4462 6.42222 12.379 6.13141 12.2793 5.8781C12.1779 5.61531 12.0418 5.3926 11.8191 5.1699C11.5974 4.94818 11.3747 4.81215 11.1119 4.70948C10.8576 4.61076 10.5678 4.54284 10.1419 4.52428C9.71603 4.50375 9.58001 4.5 8.49452 4.5C7.40999 4.5 7.27299 4.50375 6.84712 4.52428C6.42223 4.54284 6.13258 4.61076 5.87711 4.70948C5.61531 4.81215 5.39261 4.94818 5.17089 5.1699C4.94818 5.3926 4.81215 5.61531 4.70968 5.8781C4.61095 6.13141 4.54383 6.42222 4.52329 6.8479C4.50474 7.27377 4.5 7.41 4.5 8.4955C4.5 9.58002 4.50474 9.71604 4.52329 10.1419C4.54383 10.5668 4.61095 10.8574 4.70968 11.1119C4.81215 11.3737 4.94818 11.5974 5.17089 11.8191C5.39261 12.0408 5.61531 12.1779 5.87711 12.2803C6.13258 12.379 6.42223 12.4462 6.84712 12.4657C7.27299 12.4853 7.40999 12.49 8.49452 12.49C9.58001 12.49 9.71603 12.4853 10.1419 12.4657C10.5678 12.4462 10.8576 12.379 11.1119 12.2803C11.3747 12.1779 11.5974 12.0408 11.8191 11.8191C12.0418 11.5974 12.1779 11.3737 12.2793 11.1119C12.379 10.8574 12.4462 10.5668 12.4657 10.1419C12.4853 9.71604 12.49 9.58002 12.49 8.4955C12.49 7.41 12.4853 7.27377 12.4657 6.8479Z" fill="url(#paint1_linear_5_5020)"/>
<path d="M8.4946 9.82661C7.75955 9.82661 7.1631 9.23113 7.1631 8.49608C7.1631 7.75984 7.75955 7.1636 8.4946 7.1636C9.22987 7.1636 9.8271 7.75984 9.8271 8.49608C9.8271 9.23113 9.22987 9.82661 8.4946 9.82661ZM8.4946 6.44336C7.36153 6.44336 6.44385 7.363 6.44385 8.49608C6.44385 9.62818 7.36153 10.5469 8.4946 10.5469C9.62768 10.5469 10.5463 9.62818 10.5463 8.49608C10.5463 7.363 9.62768 6.44336 8.4946 6.44336Z" fill="url(#paint2_linear_5_5020)"/>
</g>
<defs>
<linearGradient id="paint0_linear_5_5020" x1="4.57209" y1="12.4076" x2="11.8246" y2="5.15514" gradientUnits="userSpaceOnUse">
<stop stop-color="#FFD521"/>
<stop offset="0.05" stop-color="#FFD521"/>
<stop offset="0.501119" stop-color="#F50000"/>
<stop offset="0.95" stop-color="#B900B4"/>
<stop offset="0.950079" stop-color="#B900B4"/>
<stop offset="1" stop-color="#B900B4"/>
</linearGradient>
<linearGradient id="paint1_linear_5_5020" x1="4.57207" y1="12.4174" x2="11.8305" y2="5.15894" gradientUnits="userSpaceOnUse">
<stop stop-color="#FFD521"/>
<stop offset="0.05" stop-color="#FFD521"/>
<stop offset="0.501119" stop-color="#F50000"/>
<stop offset="0.95" stop-color="#B900B4"/>
<stop offset="0.950079" stop-color="#B900B4"/>
<stop offset="1" stop-color="#B900B4"/>
</linearGradient>
<linearGradient id="paint2_linear_5_5020" x1="4.57404" y1="12.4181" x2="11.8307" y2="5.16147" gradientUnits="userSpaceOnUse">
<stop stop-color="#FFD521"/>
<stop offset="0.05" stop-color="#FFD521"/>
<stop offset="0.501119" stop-color="#F50000"/>
<stop offset="0.95" stop-color="#B900B4"/>
<stop offset="0.950079" stop-color="#B900B4"/>
<stop offset="1" stop-color="#B900B4"/>
</linearGradient>
<clipPath id="clip0_5_5020">
<rect width="8" height="8" fill="white" transform="translate(4.5 4.5)"/>
</clipPath>
</defs>
</svg>
