<svg width="17" height="16" viewBox="0 0 17 16" fill="none" xmlns="http://www.w3.org/2000/svg">
<rect x="0.5" width="16" height="16" rx="4" fill="white"/>
<path d="M4.5 5.07645C4.5 4.81991 4.59009 4.60827 4.77027 4.44153C4.95045 4.27478 5.18469 4.19141 5.47297 4.19141C5.75612 4.19141 5.9852 4.27349 6.16023 4.43768C6.34041 4.60699 6.4305 4.8276 6.4305 5.09953C6.4305 5.34581 6.34299 5.55103 6.16795 5.71522C5.98778 5.88453 5.75097 5.96918 5.45753 5.96918H5.44981C5.16666 5.96918 4.93758 5.88453 4.76255 5.71522C4.58751 5.5459 4.5 5.33298 4.5 5.07645ZM4.60039 11.8105V6.66952H6.31467V11.8105H4.60039ZM7.26448 11.8105H8.97876V8.93984C8.97876 8.76026 8.99936 8.62173 9.04054 8.52426C9.11261 8.34981 9.22201 8.2023 9.36873 8.08174C9.51544 7.96116 9.69948 7.90088 9.92085 7.90088C10.4974 7.90088 10.7857 8.28824 10.7857 9.06298V11.8105H12.5V8.86288C12.5 8.10354 12.3198 7.52762 11.9595 7.13513C11.5991 6.74263 11.1229 6.54638 10.5309 6.54638C9.8668 6.54638 9.34942 6.83114 8.97876 7.40064V7.41603H8.97104L8.97876 7.40064V6.66952H7.26448C7.27477 6.8337 7.27992 7.3442 7.27992 8.20103C7.27992 9.05784 7.27477 10.261 7.26448 11.8105Z" fill="#0A66C2"/>
</svg>
