<svg width="138" height="46" viewBox="0 0 138 46" fill="none" xmlns="http://www.w3.org/2000/svg">
<rect width="138" height="46" rx="23" fill="white"/>
<path opacity="0.2" d="M37.9375 19.9411C37.9375 27.7074 27 34.297 27 34.297C27 34.297 16.0625 27.7074 16.0625 19.9411C16.0625 18.2559 16.6608 16.6397 17.7259 15.448C18.7909 14.2564 20.2354 13.5869 21.7416 13.5869C24.1173 13.5869 26.1523 15.0354 27 17.3524C27.8477 15.0354 29.8827 13.5869 32.2584 13.5869C33.7646 13.5869 35.2091 14.2564 36.2741 15.448C37.3392 16.6397 37.9375 18.2559 37.9375 19.9411Z" fill="white"/>
<path d="M21.1106 24.8833H16.9039C16.6807 24.8833 16.4667 24.7841 16.309 24.6075C16.1512 24.431 16.0625 24.1916 16.0625 23.9419C16.0625 23.6922 16.1512 23.4528 16.309 23.2763C16.4667 23.0997 16.6807 23.0005 16.9039 23.0005H20.6605L22.0929 20.5953C22.1697 20.4662 22.2738 20.3603 22.396 20.2871C22.5182 20.2138 22.6547 20.1755 22.7933 20.1755C22.9319 20.1755 23.0684 20.2138 23.1906 20.2871C23.3128 20.3603 23.4169 20.4662 23.4937 20.5953L26.1587 25.0668L27.141 23.4194C27.2179 23.2905 27.322 23.1848 27.4442 23.1117C27.5664 23.0386 27.7028 23.0004 27.8414 23.0005H30.3654C30.5886 23.0005 30.8026 23.0997 30.9603 23.2763C31.1181 23.4528 31.2068 23.6922 31.2068 23.9419C31.2068 24.1916 31.1181 24.431 30.9603 24.6075C30.8026 24.7841 30.5886 24.8833 30.3654 24.8833H28.2915L26.8591 27.2885C26.7823 27.4176 26.6782 27.5235 26.556 27.5967C26.4338 27.67 26.2973 27.7083 26.1587 27.7083C26.0201 27.7083 25.8836 27.67 25.7614 27.5967C25.6392 27.5235 25.5351 27.4176 25.4583 27.2885L22.7933 22.8146L21.811 24.462C21.7344 24.5914 21.6303 24.6976 21.5081 24.7711C21.3859 24.8446 21.2494 24.8831 21.1106 24.8833ZM32.2585 12.6455C30.0867 12.6455 28.1853 13.6904 27 15.4567C25.8148 13.6904 23.9133 12.6455 21.7416 12.6455C20.0129 12.6477 18.3555 13.417 17.1331 14.7847C15.9107 16.1525 15.2231 18.0069 15.2212 19.9411V20.2059C15.2282 20.4555 15.3235 20.6919 15.4862 20.8629C15.6489 21.0339 15.8657 21.1256 16.0888 21.1178C16.312 21.11 16.5232 21.0033 16.6761 20.8213C16.8289 20.6392 16.9109 20.3967 16.9039 20.147V19.9411C16.9056 18.5061 17.4158 17.1304 18.3227 16.1157C19.2296 15.101 20.4591 14.5301 21.7416 14.5282C23.7871 14.5282 25.5045 15.7473 26.2218 17.7054C26.2852 17.878 26.393 18.0257 26.5316 18.1296C26.6702 18.2335 26.8332 18.289 27 18.289C27.1669 18.289 27.3299 18.2335 27.4685 18.1296C27.6071 18.0257 27.7149 17.878 27.7783 17.7054C28.4955 15.7438 30.2129 14.5282 32.2585 14.5282C33.541 14.5301 34.7705 15.101 35.6774 16.1157C36.5843 17.1304 37.0945 18.5061 37.0962 19.9411C37.0962 26.2494 28.9183 31.9612 27 33.2144C25.8611 32.4719 22.5167 30.1549 19.9874 27.0708C19.9127 26.9796 19.8227 26.9058 19.7225 26.8535C19.6222 26.8013 19.5138 26.7717 19.4034 26.7663C19.2929 26.761 19.1826 26.78 19.0787 26.8223C18.9749 26.8647 18.8794 26.9295 18.798 27.0131C18.7165 27.0967 18.6505 27.1974 18.6038 27.3096C18.5571 27.4217 18.5306 27.543 18.5259 27.6666C18.5211 27.7902 18.5381 27.9136 18.5759 28.0298C18.6138 28.1461 18.6717 28.2528 18.7464 28.344C22.0245 32.3448 26.4164 35.0135 26.6014 35.1253C26.724 35.1991 26.8609 35.2377 27 35.2377C27.1392 35.2377 27.2761 35.1991 27.3986 35.1253C27.8635 34.8453 38.7789 28.1781 38.7789 19.9411C38.7769 18.0069 38.0893 16.1525 36.8669 14.7847C35.6445 13.417 33.9872 12.6477 32.2585 12.6455Z" fill="#F44C4C"/>
<path d="M45.4096 28V17.0909H52.7604V18.9925H47.716V21.592H52.3822V23.4936H47.716V26.0984H52.7817V28H45.4096ZM59.6492 21.6452V23.4457H54.6741V21.6452H59.6492ZM61.6254 17.0909H64.4699L67.4741 24.4205H67.602L70.6062 17.0909H73.4507V28H71.2135V20.8995H71.1229L68.2998 27.9467H66.7763L63.9532 20.8729H63.8626V28H61.6254V17.0909ZM75.351 28V17.0909H82.7018V18.9925H77.6574V21.592H82.3236V23.4936H77.6574V26.0984H82.7231V28H75.351ZM88.4027 28H84.5356V17.0909H88.4347C89.532 17.0909 90.4766 17.3093 91.2685 17.7461C92.0604 18.1793 92.6694 18.8026 93.0956 19.6158C93.5253 20.429 93.7401 21.402 93.7401 22.5348C93.7401 23.6712 93.5253 24.6477 93.0956 25.4645C92.6694 26.2812 92.0569 26.908 91.2579 27.3448C90.4624 27.7816 89.5107 28 88.4027 28ZM86.842 26.0238H88.3069C88.9887 26.0238 89.5622 25.9031 90.0274 25.6616C90.4961 25.4165 90.8477 25.0384 91.0821 24.527C91.32 24.0121 91.439 23.348 91.439 22.5348C91.439 21.7287 91.32 21.07 91.0821 20.5586C90.8477 20.0472 90.4979 19.6708 90.0327 19.4293C89.5675 19.1879 88.994 19.0671 88.3122 19.0671H86.842V26.0238ZM96.7137 28H94.2421L98.0081 17.0909H100.98L104.741 28H102.269L99.5369 19.5838H99.4517L96.7137 28ZM96.5593 23.712H102.397V25.5124H96.5593V23.712ZM104.306 18.9925V17.0909H113.265V18.9925H109.925V28H107.645V18.9925H104.306ZM114.325 18.9925V17.0909H123.285V18.9925H119.945V28H117.665V18.9925H114.325Z" fill="#417BEB"/>
</svg>
