<svg width="38" height="37" viewBox="0 0 38 37" fill="none" xmlns="http://www.w3.org/2000/svg">
<rect x="0.674316" y="0.100098" width="36.8" height="36.8" rx="4.8" fill="white"/>
<path d="M25.7412 21.7807V23.7807C25.7419 23.9664 25.7039 24.1502 25.6295 24.3203C25.5551 24.4904 25.446 24.6431 25.3092 24.7686C25.1724 24.8941 25.0109 24.9897 24.835 25.0492C24.6591 25.1087 24.4727 25.1308 24.2878 25.114C22.2364 24.8911 20.2658 24.1901 18.5345 23.0674C16.9237 22.0438 15.5581 20.6782 14.5345 19.0674C13.4078 17.3282 12.7067 15.348 12.4878 13.2874C12.4712 13.103 12.4931 12.9172 12.5522 12.7418C12.6113 12.5664 12.7062 12.4052 12.831 12.2685C12.9558 12.1318 13.1077 12.0225 13.277 11.9477C13.4464 11.8729 13.6294 11.8342 13.8145 11.834H15.8145C16.138 11.8309 16.4517 11.9454 16.697 12.1564C16.9423 12.3674 17.1026 12.6603 17.1478 12.9807C17.2322 13.6208 17.3888 14.2492 17.6145 14.854C17.7042 15.0927 17.7236 15.352 17.6704 15.6013C17.6173 15.8506 17.4937 16.0795 17.3145 16.2607L16.4678 17.1074C17.4169 18.7764 18.7988 20.1583 20.4678 21.1074L21.3145 20.2607C21.4958 20.0815 21.7246 19.9579 21.9739 19.9048C22.2232 19.8516 22.4826 19.871 22.7212 19.9607C23.326 20.1864 23.9545 20.343 24.5945 20.4274C24.9183 20.4731 25.2141 20.6362 25.4255 20.8857C25.6369 21.1352 25.7493 21.4538 25.7412 21.7807Z" fill="#323232"/>
</svg>
