<svg width="246" height="245" viewBox="0 0 246 245" fill="none" xmlns="http://www.w3.org/2000/svg">
<path d="M39.8017 87.9962C38.3117 81.2844 38.5405 74.3052 40.4669 67.7054C42.3932 61.1057 45.9548 55.0992 50.8213 50.2429C55.6878 45.3865 61.7018 41.8376 68.3055 39.925C74.9093 38.0125 81.889 37.7983 88.5976 39.3024C92.29 33.5275 97.3768 28.7751 103.389 25.4832C109.401 22.1913 116.145 20.4658 123 20.4658C129.854 20.4658 136.598 22.1913 142.61 25.4832C148.623 28.7751 153.709 33.5275 157.402 39.3024C164.121 37.7918 171.112 38.005 177.727 39.9222C184.341 41.8394 190.363 45.3982 195.232 50.2677C200.102 55.1372 203.661 61.1592 205.578 67.7735C207.495 74.3877 207.708 81.3794 206.198 88.0982C211.972 91.7907 216.725 96.8774 220.017 102.89C223.309 108.902 225.034 115.646 225.034 122.5C225.034 129.355 223.309 136.099 220.017 142.111C216.725 148.123 211.972 153.21 206.198 156.902C207.702 163.611 207.487 170.591 205.575 177.195C203.662 183.798 200.113 189.812 195.257 194.679C190.401 199.545 184.394 203.107 177.795 205.033C171.195 206.959 164.216 207.188 157.504 205.698C153.816 211.495 148.725 216.268 142.703 219.575C136.681 222.881 129.921 224.615 123.051 224.615C116.18 224.615 109.421 222.881 103.398 219.575C97.3759 216.268 92.2852 211.495 88.5976 205.698C81.889 207.202 74.9093 206.988 68.3055 205.076C61.7018 203.163 55.6878 199.614 50.8213 194.758C45.9548 189.901 42.3932 183.895 40.4669 177.295C38.5405 170.695 38.3117 163.716 39.8017 157.005C33.9825 153.322 29.1893 148.227 25.8679 142.194C22.5464 136.162 20.8047 129.387 20.8047 122.5C20.8047 115.614 22.5464 108.839 25.8679 102.806C29.1893 96.7736 33.9825 91.6789 39.8017 87.9962Z" fill="url(#paint0_linear_5_4107)"/>
<path d="M92.375 122.5L112.792 142.916L153.625 102.083" stroke="white" stroke-width="10" stroke-linecap="round" stroke-linejoin="round"/>
<defs>
<linearGradient id="paint0_linear_5_4107" x1="51" y1="58.0005" x2="196.5" y2="195" gradientUnits="userSpaceOnUse">
<stop stop-color="#437FF4"/>
<stop offset="1" stop-color="#3268D0"/>
</linearGradient>
</defs>
</svg>
