<svg width="23" height="23" viewBox="0 0 23 23" fill="none" xmlns="http://www.w3.org/2000/svg">
<path d="M22.9999 11.7615C22.9999 10.946 22.9253 10.1619 22.7866 9.40918H11.7346V13.8576H18.05C17.778 15.2951 16.9512 16.513 15.7084 17.3285V20.214H19.5009C21.7198 18.2119 22.9999 15.2637 22.9999 11.7615Z" fill="#4285F4"/>
<path d="M11.7346 23.0001C14.903 23.0001 17.5593 21.9703 19.5008 20.2139L15.7084 17.3285C14.6576 18.0185 13.3134 18.4262 11.7346 18.4262C8.67824 18.4262 6.09127 16.4032 5.1685 13.6851H1.24805V16.6646C3.17894 20.423 7.1474 23.0001 11.7346 23.0001Z" fill="#34A853"/>
<path d="M5.1686 13.685C4.93391 12.995 4.80056 12.2579 4.80056 11.5C4.80056 10.742 4.93391 10.005 5.1686 9.31499V6.33545H1.24815C0.426716 7.93798 -0.000723951 9.70663 9.20412e-07 11.5C9.20412e-07 13.3557 0.453387 15.112 1.24815 16.6645L5.1686 13.685Z" fill="#FBBC05"/>
<path d="M11.7346 4.57386C13.4575 4.57386 15.0043 5.15409 16.2204 6.29364L19.5862 2.99523C17.5539 1.13955 14.8976 0 11.7346 0C7.1474 0 3.17894 2.57705 1.24805 6.33545L5.1685 9.315C6.09127 6.59682 8.67824 4.57386 11.7346 4.57386Z" fill="#EA4335"/>
</svg>
