<svg width="45" height="48" viewBox="0 0 45 48" fill="none" xmlns="http://www.w3.org/2000/svg">
<rect x="0.5" y="0.759766" width="44" height="46.88" rx="5.28" fill="#D9E5FB"/>
<path d="M18.5 14.1997V18.1997" stroke="#417BEB" stroke-width="2" stroke-linecap="round" stroke-linejoin="round"/>
<path d="M26.5 14.1997V18.1997" stroke="#417BEB" stroke-width="2" stroke-linecap="round" stroke-linejoin="round"/>
<path d="M29.5 16.1997H15.5C14.3954 16.1997 13.5 17.0951 13.5 18.1997V32.1997C13.5 33.3043 14.3954 34.1997 15.5 34.1997H29.5C30.6046 34.1997 31.5 33.3043 31.5 32.1997V18.1997C31.5 17.0951 30.6046 16.1997 29.5 16.1997Z" fill="#417BEB"/>
<path d="M13.5 22.1997H31.5" stroke="#D9E5FB" stroke-width="2" stroke-linecap="round" stroke-linejoin="round"/>
<path d="M18.5 26.1997H18.51" stroke="#D9E5FB" stroke-width="2" stroke-linecap="round" stroke-linejoin="round"/>
<path d="M22.5 26.1997H22.51" stroke="#D9E5FB" stroke-width="2" stroke-linecap="round" stroke-linejoin="round"/>
<path d="M26.5 26.1997H26.51" stroke="#D9E5FB" stroke-width="2" stroke-linecap="round" stroke-linejoin="round"/>
<path d="M18.5 30.1997H18.51" stroke="#D9E5FB" stroke-width="2" stroke-linecap="round" stroke-linejoin="round"/>
<path d="M22.5 30.1997H22.51" stroke="#D9E5FB" stroke-width="2" stroke-linecap="round" stroke-linejoin="round"/>
<path d="M26.5 30.1997H26.51" stroke="#D9E5FB" stroke-width="2" stroke-linecap="round" stroke-linejoin="round"/>
</svg>
