<svg width="36" height="49" viewBox="0 0 36 49" fill="none" xmlns="http://www.w3.org/2000/svg">
<path fill-rule="evenodd" clip-rule="evenodd" d="M15.297 28.466C17.7159 25.5265 17.621 21.2598 15.0737 18.4308V18.4308C12.3685 15.4264 7.79933 15.0287 4.61575 17.5206L-3.61863 23.9657C-7.77743 27.2209 -8.17159 33.373 -4.4622 37.1322V37.1322C-0.780284 40.8637 5.32172 40.5883 8.65264 36.5405L15.297 28.466Z" stroke="#EEEEEE" stroke-width="0.620325" stroke-linejoin="round"/>
<path d="M13.72 30.242L3.10514 18.7091" stroke="#EEEEEE" stroke-width="0.465243" stroke-linejoin="round"/>
<path d="M14.851 18.1567L12.0566 20.6156" stroke="#EEEEEE" stroke-width="0.465243" stroke-linejoin="round"/>
<rect width="2.32622" height="5.42784" rx="1.16311" transform="matrix(-0.669131 -0.743145 -0.743145 0.669131 12.8193 21.4395)" fill="#EEEEEE"/>
<path d="M14.8504 18.1631C14.8504 18.1631 22.3965 10.0422 26.0943 16.7902C28.988 22.0708 31.3635 7.09944 35.331 5.29004" stroke="#EEEEEE" stroke-width="0.465243"/>
</svg>
