<svg width="17" height="16" viewBox="0 0 17 16" fill="none" xmlns="http://www.w3.org/2000/svg">
<rect x="0.5" width="16" height="16" rx="4" fill="white"/>
<path d="M8.69506 11.1012L6.88964 11.0675C6.30508 11.0557 5.71907 11.0792 5.14598 10.9574C4.27417 10.7754 4.21241 9.88296 4.14778 9.13441C4.05874 8.08204 4.09321 7.01056 4.26126 5.96697C4.35613 5.38141 4.72947 5.032 5.30684 4.99398C7.25589 4.85599 9.21789 4.87234 11.1626 4.93672C11.368 4.94262 11.5748 4.97488 11.7773 5.01159C12.777 5.19067 12.8014 6.20195 12.8662 7.05327C12.9308 7.91337 12.9035 8.77788 12.78 9.63212C12.6809 10.3394 12.4913 10.9325 11.6911 10.9898C10.6886 11.0647 9.70903 11.125 8.70365 11.1058C8.7037 11.1012 8.69792 11.1012 8.69506 11.1012ZM7.63364 9.31056C8.38916 8.86726 9.13025 8.43136 9.88145 7.99103C9.12452 7.54774 8.38484 7.11183 7.63364 6.67151V9.31056Z" fill="#ED1D24"/>
</svg>
